<svg xmlns="http://www.w3.org/2000/svg" viewBox="0 0 640 480">
  <path fill="#00008B" d="M0 0h640v480H0z"/>
  <path fill="#fff" d="M0 0v27.4l307.2 222.6H352L0 0zm640 0v27.4L332.8 250H288L640 0zm0 480v-27.4L332.8 230H288l352 250zm-640 0v-27.4l307.2-222.6H352L0 480z"/>
  <path fill="#fff" d="M176 0v480h88V0h-88zM0 176v88h640v-88H0z"/>
  <path fill="red" d="M0 208v32h640v-32H0zm208 272h32V0h-32v480zM0 480l213.3-160h47.7L47.7 480H0zm0-480l213.3 160h47.7L47.7 0H0zm380.3 160L594 0h47.3L380.3 160h-47.4zM640 480L426.7 320H379l213.3 160H640z"/>
</svg>
