<svg xmlns="http://www.w3.org/2000/svg" viewBox="0 0 640 480">
  <path fill="#f93" d="M0 0h640v160H0z"/>
  <path fill="#fff" d="M0 160h640v160H0z"/>
  <path fill="#128807" d="M0 320h640v160H0z"/>
  <circle fill="#008" cx="320" cy="240" r="60"/>
  <circle fill="#fff" cx="320" cy="240" r="55"/>
  <circle fill="#008" cx="320" cy="240" r="17.5"/>
  <path fill="#008" d="M320 185l4.9 15h15.9l-12.8 9.2 4.9 15-12.9-9.2-12.9 9.2 4.9-15-12.9-9.2h15.9zm0 110l4.9 15h15.9l-12.8 9.2 4.9 15-12.9-9.2-12.9 9.2 4.9-15-12.9-9.2h15.9zM375 240l4.9 15h15.9l-12.8 9.2 4.9 15-12.9-9.2-12.9 9.2 4.9-15-12.9-9.2h15.9zm-110 0l4.9 15h15.9l-12.8 9.2 4.9 15-12.9-9.2-12.9 9.2 4.9-15-12.9-9.2h15.9z"/>
</svg>
