<svg xmlns="http://www.w3.org/2000/svg" viewBox="0 0 640 480">
  <defs>
    <clipPath id="a">
      <path fill-opacity=".7" d="M0 0h640v480H0z"/>
    </clipPath>
  </defs>
  <g fill-rule="evenodd" clip-path="url(#a)">
    <path fill="#fff" d="M0 0h640v480H0z"/>
    <path fill="#bd3d44" d="M0 0h640v36.5H0zm0 73h640v36.5H0zm0 73h640v36.5H0zm0 73h640v36.5H0zm0 73h640v36.5H0zm0 73h640v36.5H0zm0 73h640v36.5H0z"/>
    <path fill="#192f5d" d="M0 0h364.8v258.5H0z"/>
    <path fill="#fff" d="M30.4 11l3 9.3H44l-8.4 6 3.2 9.2-8.4-6-8.3 6 3.2-9.1-8.4-6h10.4zm60.8 0l3 9.3h10.5l-8.4 6 3.2 9.2-8.4-6-8.4 6 3.3-9.1-8.4-6H88zm60.8 0l3 9.3h10.4l-8.4 6 3.3 9.2-8.4-6-8.4 6 3.3-9.1-8.4-6h10.4zm60.8 0l3 9.3h10.4l-8.4 6 3.3 9.2-8.4-6-8.4 6 3.3-9.1-8.4-6h10.4zm60.8 0l3 9.3h10.4l-8.3 6 3.1 9.2-8.4-6-8.3 6 3.2-9.1-8.4-6h10.4zm60.8 0l3 9.3h10.4l-8.3 6 3.1 9.2-8.4-6-8.3 6 3.2-9.1-8.4-6h10.4zM60.8 36.5l3 9.3h10.5l-8.4 6 3.2 9.2-8.4-6-8.3 6 3.2-9.1-8.4-6h10.4zm60.8 0l3 9.3h10.5l-8.4 6 3.2 9.2-8.4-6-8.4 6 3.3-9.1-8.4-6h10.4zm60.8 0l3 9.3h10.4l-8.3 6 3.1 9.2-8.4-6-8.3 6 3.2-9.1-8.4-6h10.4zm60.8 0l3 9.3h10.4l-8.3 6 3.1 9.2-8.4-6-8.3 6 3.2-9.1-8.4-6h10.4zm60.8 0l3 9.3h10.4l-8.3 6 3.1 9.2-8.4-6-8.3 6 3.2-9.1-8.4-6h10.4zM30.4 62l3 9.2H44l-8.4 6.1 3.2 9.2-8.4-6.1-8.3 6.1 3.2-9.2-8.4-6.1h10.4zm60.8 0l3 9.2h10.5l-8.4 6.1 3.2 9.2-8.4-6.1-8.4 6.1 3.3-9.2-8.4-6.1H88zm60.8 0l3 9.2h10.4l-8.4 6.1 3.3 9.2-8.4-6.1-8.4 6.1 3.3-9.2-8.4-6.1h10.4zm60.8 0l3 9.2h10.4l-8.4 6.1 3.3 9.2-8.4-6.1-8.4 6.1 3.3-9.2-8.4-6.1h10.4zm60.8 0l3 9.2h10.4l-8.3 6.1 3.1 9.2-8.4-6.1-8.3 6.1 3.2-9.2-8.4-6.1h10.4zm60.8 0l3 9.2h10.4l-8.3 6.1 3.1 9.2-8.4-6.1-8.3 6.1 3.2-9.2-8.4-6.1h10.4zM60.8 87.5l3 9.3h10.5l-8.4 6 3.2 9.2-8.4-6-8.3 6 3.2-9.1-8.4-6h10.4zm60.8 0l3 9.3h10.5l-8.4 6 3.2 9.2-8.4-6-8.4 6 3.3-9.1-8.4-6h10.4zm60.8 0l3 9.3h10.4l-8.3 6 3.1 9.2-8.4-6-8.3 6 3.2-9.1-8.4-6h10.4zm60.8 0l3 9.3h10.4l-8.3 6 3.1 9.2-8.4-6-8.3 6 3.2-9.1-8.4-6h10.4zm60.8 0l3 9.3h10.4l-8.3 6 3.1 9.2-8.4-6-8.3 6 3.2-9.1-8.4-6h10.4zM30.4 113l3 9.3H44l-8.4 6 3.2 9.2-8.4-6-8.3 6 3.2-9.1-8.4-6h10.4zm60.8 0l3 9.3h10.5l-8.4 6 3.2 9.2-8.4-6-8.4 6 3.3-9.1-8.4-6H88zm60.8 0l3 9.3h10.4l-8.4 6 3.3 9.2-8.4-6-8.4 6 3.3-9.1-8.4-6h10.4zm60.8 0l3 9.3h10.4l-8.4 6 3.3 9.2-8.4-6-8.4 6 3.3-9.1-8.4-6h10.4zm60.8 0l3 9.3h10.4l-8.3 6 3.1 9.2-8.4-6-8.3 6 3.2-9.1-8.4-6h10.4zm60.8 0l3 9.3h10.4l-8.3 6 3.1 9.2-8.4-6-8.3 6 3.2-9.1-8.4-6h10.4zM60.8 138.6l3 9.2h10.5l-8.4 6.1 3.2 9.2-8.4-6.1-8.3 6 3.2-9.1-8.4-6h10.4zm60.8 0l3 9.2h10.5l-8.4 6.1 3.2 9.2-8.4-6.1-8.4 6 3.3-9.1-8.4-6h10.4zm60.8 0l3 9.2h10.4l-8.3 6.1 3.1 9.2-8.4-6.1-8.3 6 3.2-9.1-8.4-6h10.4zm60.8 0l3 9.2h10.4l-8.3 6.1 3.1 9.2-8.4-6.1-8.3 6 3.2-9.1-8.4-6h10.4zm60.8 0l3 9.2h10.4l-8.3 6.1 3.1 9.2-8.4-6.1-8.3 6 3.2-9.1-8.4-6h10.4zM30.4 164.1l3 9.3H44l-8.4 6 3.2 9.2-8.4-6-8.3 6 3.2-9.2-8.4-6h10.4zm60.8 0l3 9.3h10.5l-8.4 6 3.2 9.2-8.4-6-8.4 6 3.3-9.2-8.4-6H88zm60.8 0l3 9.3h10.4l-8.4 6 3.3 9.2-8.4-6-8.4 6 3.3-9.2-8.4-6h10.4zm60.8 0l3 9.3h10.4l-8.4 6 3.3 9.2-8.4-6-8.4 6 3.3-9.2-8.4-6h10.4zm60.8 0l3 9.3h10.4l-8.3 6 3.1 9.2-8.4-6-8.3 6 3.2-9.2-8.4-6h10.4zm60.8 0l3 9.3h10.4l-8.3 6 3.1 9.2-8.4-6-8.3 6 3.2-9.2-8.4-6h10.4zM60.8 189.6l3 9.3h10.5l-8.4 6 3.2 9.2-8.4-6-8.3 6 3.2-9.2-8.4-6h10.4zm60.8 0l3 9.3h10.5l-8.4 6 3.2 9.2-8.4-6-8.4 6 3.3-9.2-8.4-6h10.4zm60.8 0l3 9.3h10.4l-8.3 6 3.1 9.2-8.4-6-8.3 6 3.2-9.2-8.4-6h10.4zm60.8 0l3 9.3h10.4l-8.3 6 3.1 9.2-8.4-6-8.3 6 3.2-9.2-8.4-6h10.4zm60.8 0l3 9.3h10.4l-8.3 6 3.1 9.2-8.4-6-8.3 6 3.2-9.2-8.4-6h10.4zM30.4 215.2l3 9.2H44l-8.4 6.1 3.2 9.2-8.4-6.1-8.3 6.1 3.2-9.2-8.4-6.1h10.4zm60.8 0l3 9.2h10.5l-8.4 6.1 3.2 9.2-8.4-6.1-8.4 6.1 3.3-9.2-8.4-6.1H88zm60.8 0l3 9.2h10.4l-8.4 6.1 3.3 9.2-8.4-6.1-8.4 6.1 3.3-9.2-8.4-6.1h10.4zm60.8 0l3 9.2h10.4l-8.4 6.1 3.3 9.2-8.4-6.1-8.4 6.1 3.3-9.2-8.4-6.1h10.4zm60.8 0l3 9.2h10.4l-8.3 6.1 3.1 9.2-8.4-6.1-8.3 6.1 3.2-9.2-8.4-6.1h10.4zm60.8 0l3 9.2h10.4l-8.3 6.1 3.1 9.2-8.4-6.1-8.3 6.1 3.2-9.2-8.4-6.1h10.4z"/>
  </g>
</svg>
