<svg xmlns="http://www.w3.org/2000/svg" viewBox="0 0 200 200">
  <g fill="#FF6C37">
    <path d="M125.22,36.81H74.78c-21.78,0-39.47,17.69-39.47,39.47v46.27c0,21.78,17.69,39.47,39.47,39.47h50.43c21.78,0,39.47-17.69,39.47-39.47V76.28C164.69,54.5,147,36.81,125.22,36.81z M114.71,82.45l-28.14,28.14c-0.24,0.24-0.56,0.36-0.88,0.36c-0.32,0-0.64-0.12-0.88-0.36l-6.64-6.64c-0.48-0.48-0.48-1.27,0-1.76l13.17-13.17l-13.17-13.17c-0.48-0.48-0.48-1.27,0-1.76l6.64-6.64c0.48-0.48,1.27-0.48,1.76,0l28.14,28.14C115.2,81.18,115.2,81.97,114.71,82.45z"/>
  </g>
</svg>
