<svg width="64" height="64" viewBox="0 0 64 64" fill="none" xmlns="http://www.w3.org/2000/svg">
  <rect width="64" height="64" rx="12" fill="#00D4FF"/>
  <path d="M32 16C25.3726 16 20 21.3726 20 28C20 34.6274 25.3726 40 32 40C38.6274 40 44 34.6274 44 28C44 21.3726 38.6274 16 32 16Z" fill="white"/>
  <path d="M28 24L36 28L28 32V24Z" fill="#00D4FF"/>
  <path d="M16 44H48C49.1046 44 50 44.8954 50 46C50 47.1046 49.1046 48 48 48H16C14.8954 48 14 47.1046 14 46C14 44.8954 14.8954 44 16 44Z" fill="white"/>
</svg>
