<svg xmlns="http://www.w3.org/2000/svg" viewBox="0 0 200 200">
  <g fill="#3E54A3">
    <path d="M153.12,54.55H46.88c-3.8,0-6.88,3.08-6.88,6.88v77.14c0,3.8,3.08,6.88,6.88,6.88h106.24c3.8,0,6.88-3.08,6.88-6.88V61.43C160,57.63,156.92,54.55,153.12,54.55z M78.85,118.84l-19.48-10.26l19.48-10.26V118.84z M82.8,94.25l-27.37,14.33V91.42L82.8,77.09V94.25z M88.74,77.09l27.37,14.33v-17.1L88.74,59.99V77.09z M119.17,98.32L91.8,112.65v17.1l27.37-14.33V98.32z M123.12,98.32v17.1l27.37-14.33V84L123.12,98.32z M123.12,94.25V77.09L150.49,91.42v17.16L123.12,94.25z"/>
  </g>
</svg>
