<svg xmlns="http://www.w3.org/2000/svg" viewBox="0 0 200 200">
  <path fill="#171515" d="M99.95,34.71c-36.09,0-65.34,29.25-65.34,65.34c0,28.88,18.73,53.33,44.7,61.97c3.27,0.6,4.46-1.42,4.46-3.15c0-1.55-0.06-6.72-0.09-12.21c-18.18,3.95-22.02-7.7-22.02-7.7c-2.97-7.55-7.26-9.56-7.26-9.56c-5.94-4.06,0.45-3.98,0.45-3.98c6.56,0.46,10.02,6.74,10.02,6.74c5.84,10,15.31,7.11,19.03,5.43c0.59-4.23,2.28-7.11,4.15-8.75c-14.51-1.65-29.79-7.26-29.79-32.3c0-7.13,2.55-12.96,6.73-17.54c-0.68-1.65-2.92-8.29,0.63-17.28c0,0,5.49-1.76,17.99,6.71c5.22-1.45,10.81-2.18,16.38-2.2c5.55,0.03,11.15,0.75,16.38,2.2c12.49-8.47,17.96-6.71,17.96-6.71c3.56,8.99,1.32,15.63,0.65,17.28c4.19,4.58,6.72,10.41,6.72,17.54c0,25.1-15.3,30.63-29.86,32.24c2.35,2.02,4.44,6.01,4.44,12.1c0,8.75-0.08,15.8-0.08,17.95c0,1.75,1.18,3.78,4.49,3.14c25.95-8.65,44.66-33.09,44.66-61.95C165.29,63.96,136.04,34.71,99.95,34.71"/>
</svg>
