<svg xmlns="http://www.w3.org/2000/svg" viewBox="0 0 200 200">
  <g fill="#0052CC">
    <path d="M155.05,87.3c-0.28-0.79-1.07-1.31-1.93-1.31h-23.91l14.31-45.8c0.24-0.77-0.06-1.6-0.73-2.01c-0.67-0.41-1.54-0.29-2.09,0.3l-54.87,59.02c-0.48,0.52-0.6,1.27-0.32,1.92c0.28,0.65,0.92,1.07,1.63,1.07h24.14l-15.36,47.25c-0.24,0.74,0.04,1.54,0.67,1.96c0.63,0.42,1.47,0.35,2.03-0.17l55.77-59.32C154.93,89.21,155.33,88.09,155.05,87.3z"/>
    <path d="M165.47,65.77c-5.05-10.83-12.32-20.56-21.53-28.78c-9.2-8.22-19.95-14.6-31.53-18.82c-11.97-4.38-24.62-6.16-37.22-5.27c-12.59,0.89-24.83,4.29-35.84,9.97c-11.02,5.69-20.71,13.58-28.3,23.18c-7.6,9.6-13,20.79-15.86,32.68c-2.96,12.31-3.28,25.21-0.94,37.69c2.34,12.47,7.16,24.37,14.16,34.75c14.7,21.81,38.79,35.43,64.81,36.61c1.01,0.05,2.02,0.07,3.02,0.07c24.6,0,48.04-9.75,65.34-27.14c17.95-18.04,27.75-42.57,27.01-67.72C168.31,82.86,167.48,74.24,165.47,65.77z M141.89,145.46c-14.86,14.94-35.07,23.2-56.13,22.78c-20.76-0.42-40.44-9.27-54.11-24.31c-6.56-7.19-11.66-15.42-15.08-24.33c-3.32-8.69-4.99-17.91-4.99-27.21c0-20.8,8.11-40.38,22.84-55.16C49.25,22.41,69.47,14.16,90.52,14.57c20.76,0.42,40.44,9.27,54.11,24.31C158.31,53.4,165.49,73.8,165.49,95c0,19.11-8.36,37.43-22.96,50.03C142.2,145.17,142.04,145.32,141.89,145.46z"/>
  </g>
</svg>
