<svg xmlns="http://www.w3.org/2000/svg" viewBox="0 0 200 200">
  <path fill="#0E76A8" d="M150.93,42.08H49.07c-3.85,0-7,3.15-7,7v101.85c0,3.85,3.15,7,7,7h101.85c3.85,0,7-3.15,7-7V49.08C157.93,45.23,154.78,42.08,150.93,42.08z M72.68,137.08h-17.5V81.77h17.5V137.08z M63.93,75.02c-5.73,0-10.36-4.63-10.36-10.36s4.63-10.36,10.36-10.36s10.36,4.63,10.36,10.36S69.66,75.02,63.93,75.02z M137.08,137.08h-17.49v-27.49c0-6.58-0.11-15.07-9.21-15.07c-9.21,0-10.66,7.2-10.66,14.6v27.96h-17.5V81.77h16.76v7.73h0.23c2.38-4.48,8.17-9.21,16.76-9.21c18,0,21.29,11.85,21.29,27.27v29.53h-0.18V137.08z"/>
</svg>
