<svg xmlns="http://www.w3.org/2000/svg" viewBox="0 0 200 200">
  <g fill="#FFE01B">
    <path d="M168.62,86.27c-2.92-16.65-15.36-29.3-31.83-32.2-3.89-.69-7.79-.69-11.69,0-7.79-13.9-22.86-22.86-39.51-22.86-16.65,0-31.72,8.97-39.52,22.86-3.89-.69-7.79-.69-11.68,0-20.64,3.59-34.94,23.04-31.34,43.69,2.9,16.65,15.36,29.3,31.83,32.19H168.13c20.64-3.59,34.94-23.04,31.34-43.68"/>
    <path d="M73.86,115.16l27.15,15.96c2.9,1.46,6.53,1.46,9.43,0l27.15-15.96c2.9-1.46,4.65-4.65,4.65-7.98V75.27c0-3.33-1.75-6.52-4.65-7.98L110.44,51.33c-2.9-1.46-6.53-1.46-9.43,0L73.86,67.29c-2.9,1.46-4.65,4.65-4.65,7.98v32.91c0,3.04,1.75,6.23,4.65,7.98"/>
  </g>
</svg>
