<svg width="64" height="64" viewBox="0 0 64 64" fill="none" xmlns="http://www.w3.org/2000/svg">
  <rect width="64" height="64" rx="12" fill="#000000"/>
  <path d="M16 20C16 18.8954 16.8954 18 18 18H46C47.1046 18 48 18.8954 48 20V44C48 45.1046 47.1046 46 46 46H18C16.8954 46 16 45.1046 16 44V20Z" fill="white"/>
  <path d="M20 22H44V24H20V22Z" fill="#000000"/>
  <path d="M20 26H40V28H20V26Z" fill="#000000"/>
  <path d="M20 30H36V32H20V30Z" fill="#000000"/>
  <path d="M20 34H42V36H20V34Z" fill="#000000"/>
  <path d="M20 38H38V40H20V38Z" fill="#000000"/>
</svg>
