<svg xmlns="http://www.w3.org/2000/svg" viewBox="0 0 200 200">
  <g fill="#2CA01C">
    <path d="M163,73.35l-39.51-22.8c-0.32-0.19-0.69-0.29-1.06-0.29h-0.26H78.74h-1.26c-0.37,0-0.74,0.1-1.06,0.29L36.91,73.35c-0.66,0.38-1.06,1.08-1.06,1.84v45.6c0,0.76,0.4,1.46,1.06,1.84l39.51,22.8c0.32,0.19,0.69,0.29,1.06,0.29h1.26h43.43h0.26c0.37,0,0.74-0.1,1.06-0.29l39.51-22.8c0.66-0.38,1.06-1.08,1.06-1.84v-45.6C164.06,74.43,163.66,73.73,163,73.35z"/>
    <path fill="white" d="M99.77,121.07H84.7v-14.8h15.07v-7.54H84.7v-14.8h15.07v-7.54H77.16v52.21h22.61V121.07z"/>
    <path fill="white" d="M114.67,121.07v-14.8h15.07v-7.54h-15.07v-14.8h15.07v-7.54h-22.61v52.21h22.61v-7.54H114.67z"/>
  </g>
</svg>
