<svg xmlns="http://www.w3.org/2000/svg" viewBox="0 0 200 200">
  <g fill="#6772E5">
    <path d="M188.52,87.35c0-15.77-7.65-28.52-22.39-28.52-14.88,0-23.52,12.75-23.52,28.4,0,18.65,10.41,28.17,25.49,28.17,7.36,0,12.87-1.67,17.06-4.03v-12.4c-4.19,2.09-9.04,3.35-15.1,3.35-6,0-11.3-2.09-11.98-9.42h30.3C188.4,91.38,188.52,88.29,188.52,87.35z M157.97,84.26c0-7.05,4.31-10.06,8.27-10.06c3.84,0,7.94,3,7.94,10.06H157.97z"/>
    <path d="M129.67,59.22c-6.46,0-10.65,3.07-12.97,5.2l-0.87-4.12h-14.46c0.21,4.58,0.43,10.02,0.43,16.46v54.99h16.54V96.58c0-1.33,0.09-2.67,0.44-3.62c1.19-3,3.9-6.1,8.44-6.1c5.91,0,8.43,4.77,8.43,11.77v32.11h16.54V95.77C152.19,75.02,143.22,59.22,129.67,59.22z"/>
    <path d="M94.69,42.43l-16.66,3.72v13.87l-10.44,0.08v12.07h10.44v28c0,7.57,1.47,13.02,4.43,16.5c2.75,3.24,7.22,5.2,12.54,5.2c4.19,0,7.72-0.78,9.67-1.52l-0.08-12.4c-1.09,0.3-1.95,0.48-3.38,0.48c-4.54,0-6.5-2.57-6.5-9.34v-26.9h10.76V60.1H94.69V42.43z"/>
    <path d="M70.91,44.68H54.38v87.06h16.54V44.68z"/>
    <path d="M38.52,60.1H21.86v71.64h16.66V60.1z"/>
    <path d="M30.19,39.73c-5.53,0-9.98,4.34-9.98,9.68c0,5.33,4.45,9.67,9.98,9.67c5.53,0,9.99-4.33,9.99-9.67C40.18,44.07,35.72,39.73,30.19,39.73z"/>
  </g>
</svg>
