<svg xmlns="http://www.w3.org/2000/svg" viewBox="0 0 200 200">
  <g fill="#0079BF">
    <path d="M170,59.31c0-7.73-6.27-14-14-14H44c-7.73,0-14,6.27-14,14v81.38c0,7.73,6.27,14,14,14h112c7.73,0,14-6.27,14-14V59.31z M77.5,126.69c0,2.07-1.68,3.75-3.75,3.75H50c-2.07,0-3.75-1.68-3.75-3.75V80c0-2.07,1.68-3.75,3.75-3.75h23.75c2.07,0,3.75,1.68,3.75,3.75V126.69z M121.25,96.69c0,2.07-1.68,3.75-3.75,3.75H93.75c-2.07,0-3.75-1.68-3.75-3.75V80c0-2.07,1.68-3.75,3.75-3.75H117.5c2.07,0,3.75,1.68,3.75,3.75V96.69z M153.75,110c0,2.07-1.68,3.75-3.75,3.75H126.25c-2.07,0-3.75-1.68-3.75-3.75V80c0-2.07,1.68-3.75,3.75-3.75H150c2.07,0,3.75,1.68,3.75,3.75V110z"/>
  </g>
</svg>
