<?xml version="1.0" encoding="UTF-8"?>
<svg xmlns="http://www.w3.org/2000/svg" viewBox="0 0 200 200">
  <path fill="#2D8CFF" d="M156.25,50H43.75c-9.66,0-17.5,7.84-17.5,17.5v65c0,9.66,7.84,17.5,17.5,17.5h112.5c9.66,0,17.5-7.84,17.5-17.5v-65C173.75,57.84,165.91,50,156.25,50z M74.41,132.5h-14c-0.97,0-1.75-0.78-1.75-1.75V69.25c0-0.97,0.78-1.75,1.75-1.75h14c0.97,0,1.75,0.78,1.75,1.75v61.5C76.16,131.72,75.38,132.5,74.41,132.5z M142.11,120.16c-0.17,0.29-0.39,0.56-0.69,0.79l-31.2,23.75c-0.14,0.1-0.29,0.19-0.44,0.26c-0.09,0.04-0.19,0.07-0.28,0.1c-0.1,0.03-0.2,0.06-0.3,0.08c-0.1,0.02-0.21,0.03-0.31,0.04c-0.07,0-0.13,0.01-0.2,0.01c-0.07,0-0.13-0.01-0.2-0.01c-0.1-0.01-0.2-0.02-0.31-0.04c-0.1-0.02-0.2-0.05-0.3-0.08c-0.09-0.03-0.19-0.06-0.28-0.1c-0.15-0.07-0.3-0.16-0.44-0.26l-31.2-23.75c-0.97-0.74-1.16-2.13-0.42-3.1c0.23-0.31,0.54-0.55,0.88-0.71c0.34-0.16,0.72-0.22,1.09-0.19h8.42V88.59h-8.42c-0.37,0.03-0.75-0.03-1.09-0.19c-0.35-0.16-0.65-0.4-0.88-0.71c-0.23-0.31-0.37-0.67-0.42-1.05c-0.04-0.38,0.01-0.76,0.16-1.11c0.14-0.35,0.37-0.65,0.67-0.88c0.3-0.23,0.65-0.39,1.03-0.45c0.38-0.07,0.76-0.05,1.13,0.05c0.37,0.1,0.7,0.28,0.97,0.53L140,108.36v7.71C141.84,117.58,142.32,119.09,142.11,120.16z"/>
</svg>